Coordinates
datacolumns 6
datarows 62
range 0 0.61
inDegrees=yes
Units are S.I. units (second, meters, Newtons, ...)
If the header above contains a line with 'inDegrees', this indicates whether rotational values are in degrees (yes) or radians (no).
endheader
time	foot_tx	hip_flexion_r	knee_angle_r	ankle_angle_r	lumbar
0	0.26303261	66.39735819	-65.72092539	1.74121534	-8.7480673
0.01	0.26301761	66.42694426	-65.70244673	1.72877445	-8.84423383
0.02	0.26300572	66.49063451	-65.68047711	1.71155031	-8.91168151
0.03	0.26297908	66.4864638	-65.66000245	1.70026663	-9.07227061
0.04	0.26296492	66.55998904	-65.63304636	1.67938535	-9.15308891
0.05	0.26292864	66.54466609	-65.60840082	1.66674444	-9.35351971
0.06	0.26289753	66.57650785	-65.57920326	1.64790308	-9.5125371
0.07	0.26286129	66.61108707	-65.54826259	1.62791007	-9.68440243
0.08	0.26281966	66.65162952	-65.51621866	1.60692085	-9.86631027
0.09	0.26277545	66.70190461	-65.48298253	1.5846217	-10.05417727
0.1	0.262724	66.76172739	-65.45075615	1.56283593	-10.24790642
0.11	0.26268045	66.88830968	-65.4167402	1.53556049	-10.37865768
0.12	0.26261076	66.92145716	-65.39035849	1.52125653	-10.63589282
0.13	0.2625469	67.02097983	-65.36358899	1.50333855	-10.8288016
0.14	0.26248021	67.13427717	-65.33959034	1.48802051	-11.01930737
0.15	0.26241491	67.29231701	-65.31709413	1.47263676	-11.17062074
0.16	0.26233494	67.39867081	-65.30146734	1.46781614	-11.39691829
0.17	0.26226043	67.57325181	-65.28711394	1.46138412	-11.55657734
0.18	0.26217842	67.70804604	-65.27456281	1.46144771	-11.77984599
0.19	0.26208344	67.89983812	-65.26870897	1.46515708	-11.95109105
0.2	0.26199678	68.09172051	-65.25973713	1.46885043	-12.14051864
0.21	0.26188754	68.23967698	-65.2574493	1.48341916	-12.40008297
0.22	0.261748	68.46245625	-65.26400155	1.50318755	-12.589352
0.23	0.26162299	68.62033058	-65.26365966	1.5243727	-12.87784169
0.24	0.2614742	68.86450519	-65.2697349	1.5478181	-13.08534827
0.25	0.26133705	69.03441347	-65.26911435	1.57331966	-13.40641722
0.26	0.26117177	69.30312893	-65.2772942	1.60181725	-13.63398229
0.27	0.26101064	69.50642855	-65.28605034	1.63657676	-13.96567017
0.28	0.26086159	69.8016721	-65.29490393	1.66686892	-14.21581391
0.29	0.26072629	70.02781944	-65.30815195	1.70569075	-14.57483872
0.3	0.26062348	70.34969368	-65.32206783	1.73928973	-14.84830104
0.31	0.26051292	70.58504608	-65.35257242	1.79214232	-15.25055299
0.32	0.26043504	70.87521356	-65.39005739	1.84665216	-15.61441572
0.33	0.26037917	71.1787983	-65.43454464	1.90635488	-15.99083388
0.34	0.26033527	71.54632059	-65.48569174	1.96811505	-16.32065493
0.35	0.26029003	71.87699845	-65.53317547	2.03302456	-16.72958061
0.36	0.26026005	72.2932722	-65.57145561	2.08860661	-17.07126022
0.37	0.26021719	72.79072344	-65.60235085	2.1386022	-17.35259103
0.38	0.26017217	73.34084413	-65.62552926	2.18478337	-17.60466221
0.39	0.26012399	73.95816694	-65.64250712	2.22830928	-17.80757462
0.4	0.26008383	74.64118654	-65.64863162	2.26706793	-17.96047418
0.41	0.26003842	75.38888766	-65.65046933	2.30736144	-18.0582465
0.42	0.26000444	76.19582475	-65.64142781	2.3458704	-18.10394835
0.43	0.25999309	77.0739771	-65.62019285	2.3813418	-18.07768824
0.44	0.25996369	77.99622695	-65.6050518	2.43069402	-18.00505618
0.45	0.25995411	78.96329291	-65.59198864	2.49054151	-17.88050713
0.46	0.25994516	79.95660496	-65.59891622	2.57582633	-17.72021602
0.47	0.25993561	80.95835063	-65.6327905	2.69350812	-17.544016
0.48	0.25992677	81.96712008	-65.69281339	2.84331882	-17.35391186
0.49	0.25991361	82.98853619	-65.77149055	3.02068125	-17.14642591
0.5	0.25989517	84.03468219	-65.85603283	3.21677535	-16.91046301
0.51	0.25986571	85.11793171	-65.93563627	3.42482503	-16.6325072
0.52	0.25982318	86.24422857	-66.00656078	3.64252392	-16.30243585
0.53	0.25976211	87.41407952	-66.06346524	3.86798286	-15.91494403
0.54	0.25967963	88.62262616	-66.10429402	4.10111171	-15.46889034
0.55	0.25958525	89.85754654	-66.12704767	4.34111891	-14.97188403
0.56	0.25947978	91.09863854	-66.1359265	4.59151739	-14.4407214
0.57	0.25937569	92.31760407	-66.14110324	4.85799414	-13.90303019
0.58	0.25929324	93.48226458	-66.15212637	5.14520312	-13.39264083
0.59	0.25924494	94.55506784	-66.18367003	5.45999741	-12.95384843
0.6	0.25924467	95.53238774	-66.2362903	5.79904767	-12.59096053
0.61	0.25929529	96.41688459	-66.31448405	6.15989836	-12.30352497
